<?xml version="1.0" encoding="UTF-8"?>
<!-- Created with Grafika (https://www.grafika.cc/) -->
<svg xmlns="http://www.w3.org/2000/svg" xmlns:svg="http://www.w3.org/2000/svg" xmlns:xlink="http://www.w3.org/1999/xlink" width="1024" height="1024" viewBox="0 0 542.37 542.37" preserveAspectRatio="xMidYMid meet">
	<g transform="matrix(1, 0, 0, 1, 271.53802490234375, 396.244140625)">
		<rect x="-271.54" y="-396.24" width="542.37" height="542.37" style="fill:#FFFFFF;" />
		<path d="M199.32,34.43 C199.32,112.64 78.21,146.13 -0,146.13 C-78.21,146.13 -208.31,112.64 -208.31,34.43 C-208.31,-43.78 -78.21,-137.09 -0,-137.09 C78.21,-137.09 199.32,-43.78 199.32,34.43 Z" style="fill:#FFD257;" />
		<path d="M-222.1,-57.7 L213.88,34.43 L213.88,146.13 L-213.88,146.13 L-222.1,-57.7 Z" style="fill:#000000;" />
		<ellipse cx="-19.7" cy="-223.81" rx="82.51" ry="143.07" style="fill:#000000;" />
		<path d="M32.7,-163.87 C32.7,-157.69 10.82,-138.15 -19.7,-138.15 C-50.21,-138.15 -76.11,-155.34 -76.11,-161.53 C-76.11,-167.72 -50.21,-151.72 -19.7,-151.72 C10.82,-151.72 32.7,-170.06 32.7,-163.87 Z" style="fill:#FFFFFF;" />
		<ellipse cx="-60.08" cy="-239.22" rx="16.03" ry="43.84" style="fill:#FFFFFF;" />
		<ellipse cx="11.92" cy="-239.22" rx="16.03" ry="43.84" style="fill:#FFFFFF;" />
		<ellipse cx="11.92" cy="-239.22" rx="16.03" ry="21.92" style="fill:#000000;" />
		<ellipse cx="-60.08" cy="-239.22" rx="16.03" ry="21.92" style="fill:#000000;" />
	</g>
</svg>